<svg xmlns="http://www.w3.org/2000/svg" version="1.1" xmlns:xlink="http://www.w3.org/1999/xlink" xmlns:svgjs="http://svgjs.dev/svgjs" width="1000" height="1000" viewBox="0 0 1000 1000"><rect width="1000" height="1000" fill="#000000"></rect><g transform="matrix(0.7,0,0,0.7,150.11896067415722,379.1096158536585)"><svg viewBox="0 0 356 123" data-background-color="#ffffff" preserveAspectRatio="xMidYMid meet" height="345" width="1000" xmlns="http://www.w3.org/2000/svg" xmlns:xlink="http://www.w3.org/1999/xlink"><g id="tight-bounds" transform="matrix(1,0,0,1,-0.06049999999996203,0.07150000000001455)"><svg viewBox="0 0 356.12052 122.85662995620439" height="122.85662995620439" width="356.12052"><g><svg viewBox="0 0 356.12052 122.85662995620439" height="122.85662995620439" width="356.12052"><g><svg viewBox="0 0 356.12052 122.85662995620439" height="122.85662995620439" width="356.12052"><g><path d="M0 122.857v-122.857h356.121v122.857z" fill="#332885" stroke="transparent" stroke-width="0" rx="0%" data-fill-palette-color="tertiary"></path><path d="M3.283 119.573v-116.29h349.554v116.29z" fill="#ffffff" stroke="transparent" stroke-width="0" rx="0%" data-fill-palette-color="quaternary"></path><path d="M9.85 113.007v-103.157h336.421v103.157z" fill="#332885" stroke="transparent" stroke-width="0" data-fill-palette-color="tertiary"></path></g><g transform="matrix(1,0,0,1,19.69974,19.69974)" id="textblocktransform"><svg viewBox="0 0 316.72104 83.45714995620439" height="83.45714995620439" width="316.72104" id="textblock"><g><svg viewBox="0 0 316.72104 83.45714995620439" height="83.45714995620439" width="316.72104"><g transform="matrix(1,0,0,1,0,0)"><svg width="316.72104" viewBox="1.25 -35.29999923706055 136.99000549316406 36.099998474121094" height="83.45714995620439" data-palette-color="#ffffff"><path d="M23.95-34.5L35.9-34.5 35.9-34.1 32.3-33.7Q31.1-33.55 30.7-33.1 30.3-32.65 30.3-31.45L30.3-31.45 30.3 0.8 29.8 0.8 7.35-31.05 7.15-31.05 7.15-3.05Q7.15-1.85 7.45-1.38 7.75-0.9 8.65-0.8L8.65-0.8 12.2-0.4 12.2 0 1.25 0 1.25-0.4 4.85-0.8Q5.75-0.9 6.05-1.38 6.35-1.85 6.35-3.05L6.35-3.05 6.35-32.15 6.15-32.45Q5.45-33.45 4.83-33.77 4.2-34.1 3-34.1L3-34.1 2.15-34.1 2.15-34.5 9.6-34.5 29.3-6.9 29.5-6.9 29.5-31.45Q29.5-32.65 29.2-33.15 28.9-33.65 28-33.7L28-33.7 23.95-34.1 23.95-34.5ZM63.9-10.55L64.45-10.5 63.2 0 38.7 0 38.7-0.4 42.8-0.8 42.8-33.7 38.7-34.1 38.7-34.5 63.25-34.5 63.95-25.1 63.45-25.05 60.65-32.05Q60.2-33.2 59.67-33.55 59.15-33.9 57.95-33.9L57.95-33.9 46.65-33.9 46.65-18.55 54.05-18.55Q55.25-18.55 55.75-18.95 56.25-19.35 56.45-20.5L56.45-20.5 57.3-24.55 57.9-24.55 57.9-11.75 57.3-11.75 56.45-15.8Q56.25-16.95 55.75-17.35 55.25-17.75 54.05-17.75L54.05-17.75 46.65-17.75 46.65-0.6 57.85-0.6Q59.05-0.6 59.6-0.98 60.15-1.35 60.6-2.45L60.6-2.45 63.9-10.55ZM105.3-34.5L115.95-34.5 115.95-34.1 113.15-33.85Q111.8-33.75 111.3-33.38 110.8-33 110.45-31.85L110.45-31.85 100.5 0.8 99.7 0.8 90.95-24.1 83.35 0.8 82.55 0.8 70.4-33.7 66.3-34.1 66.3-34.5 78.8-34.5 78.8-34.1 74.45-33.7 84.3-5.6 84.5-5.6 90.5-25.3 87.55-33.7 83.45-34.1 83.45-34.5 95.95-34.5 95.95-34.1 91.6-33.7 101.45-5.6 101.65-5.6 109.65-31.85Q109.8-32.4 109.8-32.8L109.8-32.8Q109.8-33.35 109.5-33.58 109.2-33.8 108.35-33.85L108.35-33.85 105.3-34.1 105.3-34.5ZM127.39 0.8Q130.49 0.8 132.97-0.5 135.44-1.8 136.84-4.08 138.24-6.35 138.24-9.25L138.24-9.25Q138.24-11.85 137.12-13.63 135.99-15.4 134.17-16.6 132.34-17.8 129.34-19.15L129.34-19.15Q125.99-20.7 124.17-21.8 122.34-22.9 121.32-24.4 120.29-25.9 120.29-28.1L120.29-28.1Q120.29-31.15 122.14-32.93 123.99-34.7 127.09-34.7L127.09-34.7Q132.24-34.7 134.74-29.55L134.74-29.55Q135.99-27 136.79-23.65L136.79-23.65 137.29-23.8 136.79-34.7 136.14-34.7 134.94-32.3Q132.89-33.9 131.12-34.6 129.34-35.3 127.29-35.3L127.29-35.3Q124.34-35.3 122.02-34.08 119.69-32.85 118.37-30.68 117.04-28.5 117.04-25.75L117.04-25.75Q117.04-23.05 118.27-21.18 119.49-19.3 121.34-18.13 123.19-16.95 125.94-15.75L125.94-15.75Q129.29-14.3 131.14-13.2 132.99-12.1 134.07-10.55 135.14-9 135.14-6.75L135.14-6.75Q135.14-3.55 133.12-1.68 131.09 0.2 127.49 0.2L127.49 0.2Q123.29 0.2 120.74-2.65L120.74-2.65Q119.49-4.05 118.72-5.95 117.94-7.85 117.19-11.25L117.19-11.25 116.74-11.15 117.39 0.8 118.04 0.8 119.09-1.95Q120.64-0.65 122.84 0.08 125.04 0.8 127.39 0.8L127.39 0.8Z" opacity="1" transform="matrix(1,0,0,1,0,0)" fill="#ffffff" class="undefined-text-0" data-fill-palette-color="quaternary" id="text-0"></path></svg></g></svg></g></svg></g></svg></g><g></g></svg></g><defs></defs></svg><rect width="356.12052" height="122.85662995620439" fill="none" stroke="none" visibility="hidden"></rect></g></svg></g></svg>